<?xml version="1.0" standalone="no"?>
<!DOCTYPE svg PUBLIC "-//W3C//DTD SVG 20010904//EN"
 "http://www.w3.org/TR/2001/REC-SVG-20010904/DTD/svg10.dtd">
<svg version="1.0" xmlns="http://www.w3.org/2000/svg"
 width="512.000000pt" height="512.000000pt" viewBox="0 0 512.000000 512.000000"
 preserveAspectRatio="xMidYMid meet">
<metadata>
Created by potrace 1.11, written by Peter Selinger 2001-2013
</metadata>
<g transform="translate(0.000000,512.000000) scale(0.100000,-0.100000)"
fill="#000000" stroke="none">
<path d="M4645 5109 c-27 -14 -26 -13 -245 -364 -280 -449 -260 -419 -273
-402 -57 73 -174 128 -276 129 -138 1 -209 -39 -346 -193 -36 -41 -286 -319
-300 -335 -5 -6 -39 -44 -75 -84 -76 -87 -160 -180 -174 -196 -22 -23 -85 -93
-246 -274 -90 -102 -167 -187 -170 -190 -3 -3 -62 -68 -130 -145 -69 -77 -141
-158 -160 -179 -19 -21 -39 -44 -45 -50 -19 -20 -340 -381 -370 -415 -16 -19
-35 -39 -41 -45 -5 -6 -68 -76 -138 -156 -71 -80 -134 -149 -140 -155 -6 -5
-65 -71 -131 -145 -66 -74 -136 -153 -155 -174 -19 -21 -39 -44 -45 -50 -5 -6
-82 -92 -170 -191 -88 -99 -167 -187 -175 -195 -8 -9 -31 -34 -50 -56 -32 -36
-191 -213 -215 -240 -5 -6 -41 -46 -80 -90 -150 -168 -261 -292 -335 -374
-154 -170 -164 -184 -157 -229 7 -45 19 -60 144 -183 162 -160 176 -162 310
-42 37 33 140 125 228 204 88 78 176 157 195 174 19 17 98 88 175 156 77 69
149 134 161 145 11 11 51 47 89 80 38 33 73 65 79 70 6 6 72 64 146 130 74 66
137 123 140 126 3 3 48 43 100 89 52 47 100 89 106 95 6 5 46 42 90 81 43 39
149 133 234 210 86 76 191 171 235 209 44 39 84 75 90 81 5 5 48 44 95 85 46
40 91 81 100 89 9 8 49 44 89 80 41 36 86 76 100 90 15 14 67 61 116 104 50
44 128 113 174 155 47 42 110 99 141 126 30 28 94 84 140 126 235 211 403 360
469 419 41 36 81 72 90 81 9 8 74 67 146 130 211 187 242 221 271 300 47 133
14 275 -90 382 l-35 37 52 33 c29 18 199 125 379 237 272 170 331 211 344 238
31 66 20 83 -176 278 -99 99 -182 181 -185 183 -11 9 -82 9 -100 0z m182 -405
c-6 -6 -73 -49 -147 -94 -74 -46 -146 -90 -160 -99 -29 -19 -36 -33 78 149 47
74 92 146 100 159 l14 23 64 -63 c50 -49 61 -66 51 -75z m-908 -463 c13 -8 93
-85 178 -170 156 -158 179 -192 168 -249 -5 -26 -43 -92 -53 -92 -4 0 -34 -26
-68 -58 -33 -31 -89 -82 -124 -112 -35 -30 -70 -62 -79 -71 -9 -9 -63 -58
-121 -109 -180 -159 -242 -215 -254 -225 -6 -6 -60 -55 -121 -109 -60 -54
-148 -133 -195 -175 -46 -42 -105 -94 -130 -116 -25 -22 -47 -42 -50 -45 -3
-3 -45 -41 -95 -85 -49 -44 -135 -120 -190 -170 -55 -49 -138 -124 -184 -165
-46 -41 -89 -79 -95 -85 -6 -5 -94 -84 -196 -175 -102 -91 -190 -169 -196
-175 -23 -21 -92 -83 -179 -160 -49 -44 -95 -84 -101 -90 -6 -5 -44 -39 -84
-75 -40 -36 -83 -74 -94 -85 -12 -11 -62 -56 -111 -100 -50 -44 -95 -84 -101
-90 -45 -41 -165 -147 -190 -168 l-31 -26 -81 82 -82 82 31 35 c17 19 48 53
68 75 20 22 70 78 111 125 41 46 82 91 90 100 8 9 47 52 85 95 39 43 75 83 80
89 6 6 46 52 90 101 44 50 82 92 85 95 3 3 59 66 125 140 66 74 125 140 130
146 6 6 39 44 75 84 36 40 86 96 111 124 26 28 57 63 70 77 21 24 115 130 159
179 8 9 45 50 82 91 36 41 75 83 85 95 10 12 50 57 89 100 39 43 116 129 169
189 54 61 131 146 170 190 40 44 118 132 175 195 57 63 135 151 174 194 39 44
87 97 106 119 33 38 112 125 155 173 11 12 47 53 80 90 87 99 114 123 149 133
37 10 83 3 115 -18z m-2924 -3252 l70 -70 -46 -42 c-25 -23 -76 -69 -113 -102
-38 -33 -76 -67 -85 -76 -9 -9 -81 -74 -161 -145 -195 -174 -215 -192 -274
-246 -28 -26 -56 -48 -61 -48 -14 0 -67 58 -63 69 2 7 111 131 158 181 8 8 85
94 170 190 85 96 160 180 165 185 6 6 44 47 84 93 40 45 76 82 80 82 3 0 38
-32 76 -71z"/>
</g>
</svg>
